<svg version="1.0" preserveAspectRatio="xMidYMid meet" viewBox="39 159.74999616600002 294.75 54.749998686" zoomAndPan="magnify" xmlns:xlink="http://www.w3.org/1999/xlink" xmlns="http://www.w3.org/2000/svg" style="max-height: 500px" width="294.75" height="54.749998686"><defs><g/><clipPath id="e0b2571b98"><path clip-rule="nonzero" d="M 44 164.765625 L 101 164.765625 L 101 200 L 44 200 Z M 44 164.765625"/></clipPath><clipPath id="5552540d94"><path clip-rule="nonzero" d="M 85 170 L 120.523438 170 L 120.523438 186 L 85 186 Z M 85 170"/></clipPath></defs><path fill-rule="nonzero" fill-opacity="1" d="M 98.519531 169.570312 C 97.964844 169.878906 97.425781 170.195312 96.910156 170.511719 C 96.90625 170.515625 96.898438 170.519531 96.894531 170.519531 C 94.492188 171.929688 92.09375 173.804688 90.101562 176.269531 C 90.09375 176.273438 90.089844 176.28125 90.078125 176.292969 C 87.972656 178.832031 86.589844 181.660156 85.898438 184.761719 C 85.878906 184.839844 85.859375 184.914062 85.84375 184.988281 C 85.46875 186.5625 85.226562 188.269531 85.152344 190.113281 C 84.285156 211.808594 65.59375 185.683594 65.59375 185.683594 L 46.394531 165.777344 L 98.519531 169.570312" fill="#dad9d8"/><path fill-rule="nonzero" fill-opacity="1" d="M 84.269531 168.535156 C 84.269531 168.535156 77.710938 175.871094 78.648438 181.597656 C 79.585938 187.328125 73.902344 195.058594 73.902344 195.058594 C 73.902344 195.058594 76.132812 198.527344 79.296875 198.722656 C 82.464844 198.925781 82.796875 198.5 82.796875 198.5 L 84.601562 196.179688 L 85.371094 192.722656 L 85.921875 185.585938 L 87.332031 180.703125 L 90.847656 175.394531 L 95.253906 171.863281 L 98.519531 169.164062 L 82.992188 167.902344 L 84.269531 168.535156" fill="#ebebea"/><g clip-path="url(#e0b2571b98)"><path fill-rule="nonzero" fill-opacity="1" d="M 48.214844 166.625 L 66.152344 185.222656 L 66.183594 185.261719 C 69.003906 189.203125 77.242188 199.152344 81.460938 197.90625 C 83.21875 197.382812 84.246094 194.679688 84.433594 190.085938 C 84.503906 188.253906 84.742188 186.484375 85.140625 184.820312 C 85.15625 184.75 85.179688 184.671875 85.199219 184.59375 C 85.910156 181.382812 87.367188 178.4375 89.527344 175.835938 C 89.53125 175.828125 89.542969 175.816406 89.550781 175.804688 C 91.320312 173.617188 93.546875 171.707031 96.167969 170.121094 Z M 80.726562 199.4375 C 78.222656 199.4375 74.957031 197.363281 70.996094 193.257812 C 67.878906 190.023438 65.351562 186.566406 65.039062 186.140625 L 44.578125 164.925781 L 100.96875 169.03125 L 98.867188 170.199219 C 98.292969 170.515625 97.78125 170.816406 97.300781 171.117188 L 97.253906 171.144531 C 94.621094 172.6875 92.40625 174.5625 90.664062 176.714844 L 90.636719 176.753906 C 88.617188 179.179688 87.265625 181.925781 86.601562 184.917969 L 86.59375 184.949219 C 86.574219 185.015625 86.5625 185.082031 86.542969 185.148438 C 86.167969 186.730469 85.941406 188.40625 85.871094 190.140625 C 85.652344 195.558594 84.34375 198.542969 81.871094 199.277344 C 81.507812 199.386719 81.125 199.4375 80.726562 199.4375" fill="#464648"/></g><path fill-rule="nonzero" fill-opacity="1" d="M 86.4375 185.707031 L 84.949219 185.707031 L 85.136719 184.828125 C 85.160156 184.746094 85.179688 184.660156 85.203125 184.578125 L 85.84375 184.734375 L 85.84375 184.273438 L 85.847656 184.273438 L 85.847656 184.738281 L 86.597656 184.921875 C 86.585938 184.992188 86.570312 185.066406 86.550781 185.132812 L 86.4375 185.707031" fill="#464648"/><path fill-rule="nonzero" fill-opacity="1" d="M 90.652344 176.726562 L 89.542969 175.820312 C 91.390625 173.53125 93.742188 171.539062 96.527344 169.90625 L 97.273438 171.128906 C 94.589844 172.792969 92.359375 174.675781 90.652344 176.726562" fill="#464648"/><path fill-rule="nonzero" fill-opacity="1" d="M 86.480469 185.386719 L 85.921875 185.386719 L 85.921875 184.769531 L 85.1875 184.636719 C 85.199219 184.59375 85.203125 184.5625 85.210938 184.527344 L 85.351562 183.953125 L 85.363281 183.953125 C 86.203125 180.953125 87.597656 178.230469 89.519531 175.84375 L 90.640625 176.746094 C 88.738281 179.105469 87.386719 181.828125 86.617188 184.847656 L 86.480469 185.386719" fill="#464648"/><path fill-rule="nonzero" fill-opacity="1" d="M 97.277344 171.128906 L 96.546875 169.894531 C 102.589844 166.351562 108.574219 165.65625 108.828125 165.632812 L 108.988281 167.054688 C 108.925781 167.0625 103.042969 167.75 97.277344 171.128906" fill="#464648"/><path fill-rule="nonzero" fill-opacity="1" d="M 46.394531 185.683594 C 44.074219 190.730469 46.304688 196.695312 51.378906 199.003906 C 56.453125 201.320312 62.453125 199.097656 64.78125 194.050781 C 67.101562 189 64.871094 183.035156 59.796875 180.726562 C 54.722656 178.414062 48.71875 180.636719 46.394531 185.683594" fill="#63c54a"/><path fill-rule="nonzero" fill-opacity="1" d="M 57.148438 186.589844 C 56.117188 190.542969 54.488281 198.042969 56.742188 199.851562 C 58.988281 201.660156 64.261719 197.09375 65.289062 193.140625 C 66.320312 189.191406 63.640625 183.441406 61.390625 181.636719 C 59.144531 179.824219 58.179688 182.640625 57.148438 186.589844" fill="#54aa3e"/><path fill-rule="nonzero" fill-opacity="1" d="M 47.050781 185.976562 C 44.898438 190.660156 46.976562 196.210938 51.679688 198.355469 C 53.960938 199.390625 56.511719 199.484375 58.859375 198.617188 C 61.210938 197.746094 63.078125 196.019531 64.121094 193.75 C 65.167969 191.480469 65.261719 188.945312 64.386719 186.609375 C 63.515625 184.273438 61.777344 182.414062 59.496094 181.378906 C 54.785156 179.234375 49.203125 181.296875 47.050781 185.976562 Z M 55.582031 200.640625 C 54.050781 200.640625 52.519531 200.308594 51.082031 199.65625 C 45.65625 197.183594 43.257812 190.78125 45.742188 185.382812 C 46.949219 182.769531 49.101562 180.773438 51.816406 179.773438 C 54.527344 178.769531 57.464844 178.878906 60.09375 180.078125 C 62.726562 181.269531 64.730469 183.414062 65.734375 186.113281 C 66.746094 188.808594 66.636719 191.734375 65.433594 194.347656 C 64.226562 196.964844 62.074219 198.953125 59.359375 199.960938 C 58.132812 200.414062 56.851562 200.640625 55.582031 200.640625" fill="#464648"/><path fill-rule="nonzero" fill-opacity="1" d="M 50.839844 187.703125 C 49.640625 190.3125 50.789062 193.394531 53.414062 194.589844 C 56.039062 195.78125 59.132812 194.636719 60.335938 192.027344 C 61.535156 189.421875 60.386719 186.335938 57.761719 185.144531 C 55.136719 183.949219 52.042969 185.097656 50.839844 187.703125" fill="#76cb51"/><path fill-rule="nonzero" fill-opacity="1" d="M 50.65625 187.703125 C 49.917969 190.3125 50.628906 193.394531 52.230469 194.589844 C 53.839844 195.78125 55.734375 194.636719 56.472656 192.027344 C 57.210938 189.421875 56.5 186.335938 54.898438 185.144531 C 53.289062 183.949219 51.394531 185.097656 50.65625 187.703125" fill="#63c54a"/><path fill-rule="nonzero" fill-opacity="1" d="M 55.585938 185.386719 C 55.058594 185.386719 54.53125 185.480469 54.015625 185.667969 C 52.890625 186.082031 51.996094 186.914062 51.496094 188 C 50.996094 189.089844 50.949219 190.304688 51.371094 191.425781 C 51.785156 192.546875 52.621094 193.441406 53.714844 193.9375 C 54.804688 194.433594 56.027344 194.476562 57.15625 194.0625 C 58.285156 193.644531 59.179688 192.820312 59.679688 191.730469 C 60.179688 190.644531 60.226562 189.425781 59.804688 188.304688 C 59.390625 187.1875 58.554688 186.292969 57.460938 185.792969 C 56.863281 185.519531 56.226562 185.386719 55.585938 185.386719 Z M 55.582031 195.777344 C 54.746094 195.777344 53.902344 195.597656 53.113281 195.238281 C 51.671875 194.578125 50.574219 193.402344 50.019531 191.925781 C 49.464844 190.445312 49.523438 188.839844 50.183594 187.40625 C 50.847656 185.972656 52.027344 184.875 53.515625 184.328125 C 55.003906 183.777344 56.617188 183.835938 58.058594 184.492188 C 59.503906 185.152344 60.601562 186.328125 61.15625 187.808594 C 61.710938 189.289062 61.652344 190.890625 60.988281 192.324219 C 60.328125 193.757812 59.148438 194.851562 57.660156 195.40625 C 56.984375 195.652344 56.28125 195.777344 55.582031 195.777344" fill="#464648"/><g clip-path="url(#5552540d94)"><path fill-rule="nonzero" fill-opacity="1" d="M 86.765625 185.433594 C 86.199219 185.433594 85.867188 185.386719 85.808594 185.378906 L 86.027344 183.964844 C 86.089844 183.972656 92.15625 184.761719 99.1875 177.917969 C 103.152344 174.0625 108.746094 172.386719 112.746094 171.660156 C 117.046875 170.875 120.382812 170.992188 120.523438 170.996094 L 120.46875 172.429688 C 120.339844 172.425781 107.300781 172.027344 100.191406 178.941406 C 94.203125 184.769531 88.875 185.433594 86.765625 185.433594" fill="#464648"/></g><path fill-rule="nonzero" fill-opacity="1" d="M 80.488281 195.984375 C 80.414062 195.984375 80.339844 195.972656 80.261719 195.949219 C 79.886719 195.824219 79.683594 195.417969 79.808594 195.046875 C 79.894531 194.777344 79.914062 194.71875 79.925781 194.671875 C 79.957031 194.589844 79.96875 194.539062 80.203125 193.855469 C 80.332031 193.484375 80.738281 193.28125 81.113281 193.410156 C 81.496094 193.535156 81.695312 193.945312 81.5625 194.316406 C 81.339844 194.980469 81.328125 195.023438 81.304688 195.085938 C 81.289062 195.140625 81.265625 195.207031 81.175781 195.496094 C 81.074219 195.796875 80.789062 195.984375 80.488281 195.984375" fill="#464648"/><path fill-rule="nonzero" fill-opacity="1" d="M 81.625 192.617188 C 81.550781 192.617188 81.472656 192.605469 81.390625 192.578125 C 81.015625 192.449219 80.8125 192.042969 80.941406 191.671875 C 81.296875 190.652344 81.304688 190.351562 81.332031 189.625 C 81.335938 189.496094 81.347656 189.355469 81.351562 189.203125 C 81.375 188.808594 81.707031 188.503906 82.105469 188.523438 C 82.503906 188.539062 82.8125 188.878906 82.792969 189.273438 C 82.78125 189.421875 82.777344 189.554688 82.773438 189.679688 C 82.742188 190.480469 82.722656 190.917969 82.304688 192.132812 C 82.203125 192.429688 81.925781 192.617188 81.625 192.617188" fill="#464648"/><path fill-rule="nonzero" fill-opacity="1" d="M 82.203125 187.167969 C 81.847656 187.167969 81.535156 186.90625 81.488281 186.539062 C 81.253906 184.679688 80.613281 183.519531 80.609375 183.511719 C 80.414062 183.164062 80.539062 182.730469 80.886719 182.539062 C 81.234375 182.34375 81.671875 182.464844 81.867188 182.8125 C 81.898438 182.867188 82.644531 184.203125 82.917969 186.359375 C 82.96875 186.753906 82.6875 187.113281 82.292969 187.164062 C 82.265625 187.167969 82.230469 187.167969 82.203125 187.167969" fill="#464648"/><g fill-opacity="1" fill="#54ab3e"><g transform="translate(120.509433, 202.358246)"><g><path d="M 2.984375 0 L 2.984375 -30.328125 L 22.421875 -30.328125 L 22.421875 -25.71875 L 8.484375 -25.71875 L 8.484375 -17.484375 L 21.09375 -17.484375 L 21.09375 -12.890625 L 8.484375 -12.890625 L 8.484375 0 Z M 2.984375 0"/></g></g></g><g fill-opacity="1" fill="#54ab3e"><g transform="translate(144.73768, 202.358246)"><g><path d="M 9.296875 0.453125 C 7.859375 0.453125 6.5625 0.195312 5.40625 -0.3125 C 4.257812 -0.832031 3.351562 -1.597656 2.6875 -2.609375 C 2.019531 -3.628906 1.6875 -4.890625 1.6875 -6.390625 C 1.6875 -7.671875 1.921875 -8.726562 2.390625 -9.5625 C 2.867188 -10.40625 3.515625 -11.078125 4.328125 -11.578125 C 5.148438 -12.085938 6.078125 -12.472656 7.109375 -12.734375 C 8.140625 -12.992188 9.210938 -13.179688 10.328125 -13.296875 C 11.660156 -13.429688 12.738281 -13.554688 13.5625 -13.671875 C 14.394531 -13.785156 15 -13.960938 15.375 -14.203125 C 15.757812 -14.453125 15.953125 -14.832031 15.953125 -15.34375 L 15.953125 -15.4375 C 15.953125 -16.550781 15.617188 -17.410156 14.953125 -18.015625 C 14.296875 -18.628906 13.34375 -18.9375 12.09375 -18.9375 C 10.78125 -18.9375 9.738281 -18.648438 8.96875 -18.078125 C 8.207031 -17.503906 7.695312 -16.828125 7.4375 -16.046875 L 2.421875 -16.765625 C 2.816406 -18.148438 3.46875 -19.304688 4.375 -20.234375 C 5.289062 -21.171875 6.40625 -21.875 7.71875 -22.34375 C 9.03125 -22.8125 10.476562 -23.046875 12.0625 -23.046875 C 13.164062 -23.046875 14.257812 -22.914062 15.34375 -22.65625 C 16.425781 -22.394531 17.414062 -21.972656 18.3125 -21.390625 C 19.21875 -20.804688 19.941406 -20.007812 20.484375 -19 C 21.035156 -17.988281 21.3125 -16.726562 21.3125 -15.21875 L 21.3125 0 L 16.15625 0 L 16.15625 -3.125 L 15.984375 -3.125 C 15.648438 -2.488281 15.191406 -1.894531 14.609375 -1.34375 C 14.023438 -0.800781 13.289062 -0.363281 12.40625 -0.03125 C 11.519531 0.289062 10.484375 0.453125 9.296875 0.453125 Z M 10.6875 -3.484375 C 11.769531 -3.484375 12.703125 -3.695312 13.484375 -4.125 C 14.273438 -4.550781 14.882812 -5.117188 15.3125 -5.828125 C 15.75 -6.546875 15.96875 -7.320312 15.96875 -8.15625 L 15.96875 -10.84375 C 15.800781 -10.707031 15.515625 -10.578125 15.109375 -10.453125 C 14.710938 -10.335938 14.265625 -10.234375 13.765625 -10.140625 C 13.273438 -10.054688 12.785156 -9.976562 12.296875 -9.90625 C 11.816406 -9.832031 11.398438 -9.773438 11.046875 -9.734375 C 10.242188 -9.617188 9.523438 -9.4375 8.890625 -9.1875 C 8.265625 -8.945312 7.769531 -8.609375 7.40625 -8.171875 C 7.039062 -7.734375 6.859375 -7.164062 6.859375 -6.46875 C 6.859375 -5.476562 7.21875 -4.734375 7.9375 -4.234375 C 8.65625 -3.734375 9.570312 -3.484375 10.6875 -3.484375 Z M 10.6875 -3.484375"/></g></g></g><g fill-opacity="1" fill="#54ab3e"><g transform="translate(168.699365, 202.358246)"><g><path d="M 2.75 0 L 2.75 -22.75 L 7.953125 -22.75 L 7.953125 -18.953125 L 8.1875 -18.953125 C 8.601562 -20.265625 9.316406 -21.28125 10.328125 -22 C 11.335938 -22.71875 12.492188 -23.078125 13.796875 -23.078125 C 14.097656 -23.078125 14.429688 -23.0625 14.796875 -23.03125 C 15.171875 -23.007812 15.484375 -22.972656 15.734375 -22.921875 L 15.734375 -18 C 15.503906 -18.070312 15.144531 -18.140625 14.65625 -18.203125 C 14.164062 -18.265625 13.691406 -18.296875 13.234375 -18.296875 C 12.265625 -18.296875 11.390625 -18.085938 10.609375 -17.671875 C 9.835938 -17.253906 9.226562 -16.675781 8.78125 -15.9375 C 8.332031 -15.195312 8.109375 -14.34375 8.109375 -13.375 L 8.109375 0 Z M 2.75 0"/></g></g></g><g fill-opacity="1" fill="#54ab3e"><g transform="translate(185.241519, 202.358246)"><g><path d="M 2.75 0 L 2.75 -22.75 L 7.875 -22.75 L 7.875 -18.875 L 8.140625 -18.875 C 8.617188 -20.1875 9.40625 -21.207031 10.5 -21.9375 C 11.59375 -22.675781 12.898438 -23.046875 14.421875 -23.046875 C 15.960938 -23.046875 17.265625 -22.671875 18.328125 -21.921875 C 19.390625 -21.179688 20.132812 -20.164062 20.5625 -18.875 L 20.8125 -18.875 C 21.3125 -20.144531 22.160156 -21.15625 23.359375 -21.90625 C 24.554688 -22.664062 25.984375 -23.046875 27.640625 -23.046875 C 29.734375 -23.046875 31.441406 -22.382812 32.765625 -21.0625 C 34.085938 -19.738281 34.75 -17.804688 34.75 -15.265625 L 34.75 0 L 29.359375 0 L 29.359375 -14.4375 C 29.359375 -15.851562 28.984375 -16.890625 28.234375 -17.546875 C 27.484375 -18.203125 26.566406 -18.53125 25.484375 -18.53125 C 24.191406 -18.53125 23.179688 -18.125 22.453125 -17.3125 C 21.734375 -16.507812 21.375 -15.46875 21.375 -14.1875 L 21.375 0 L 16.109375 0 L 16.109375 -14.65625 C 16.109375 -15.832031 15.753906 -16.769531 15.046875 -17.46875 C 14.347656 -18.175781 13.429688 -18.53125 12.296875 -18.53125 C 11.523438 -18.53125 10.820312 -18.332031 10.1875 -17.9375 C 9.550781 -17.550781 9.046875 -17.003906 8.671875 -16.296875 C 8.296875 -15.585938 8.109375 -14.765625 8.109375 -13.828125 L 8.109375 0 Z M 2.75 0"/></g></g></g><g fill-opacity="1" fill="#000000"><g transform="translate(222.684353, 202.358246)"><g><path d="M 2.984375 0 L 2.984375 -30.328125 L 22.71875 -30.328125 L 22.71875 -25.71875 L 8.484375 -25.71875 L 8.484375 -17.484375 L 21.703125 -17.484375 L 21.703125 -12.890625 L 8.484375 -12.890625 L 8.484375 -4.609375 L 22.84375 -4.609375 L 22.84375 0 Z M 2.984375 0"/></g></g></g><g fill-opacity="1" fill="#000000"><g transform="translate(248.023307, 202.358246)"><g><path d="M 9.296875 0.453125 C 7.859375 0.453125 6.5625 0.195312 5.40625 -0.3125 C 4.257812 -0.832031 3.351562 -1.597656 2.6875 -2.609375 C 2.019531 -3.628906 1.6875 -4.890625 1.6875 -6.390625 C 1.6875 -7.671875 1.921875 -8.726562 2.390625 -9.5625 C 2.867188 -10.40625 3.515625 -11.078125 4.328125 -11.578125 C 5.148438 -12.085938 6.078125 -12.472656 7.109375 -12.734375 C 8.140625 -12.992188 9.210938 -13.179688 10.328125 -13.296875 C 11.660156 -13.429688 12.738281 -13.554688 13.5625 -13.671875 C 14.394531 -13.785156 15 -13.960938 15.375 -14.203125 C 15.757812 -14.453125 15.953125 -14.832031 15.953125 -15.34375 L 15.953125 -15.4375 C 15.953125 -16.550781 15.617188 -17.410156 14.953125 -18.015625 C 14.296875 -18.628906 13.34375 -18.9375 12.09375 -18.9375 C 10.78125 -18.9375 9.738281 -18.648438 8.96875 -18.078125 C 8.207031 -17.503906 7.695312 -16.828125 7.4375 -16.046875 L 2.421875 -16.765625 C 2.816406 -18.148438 3.46875 -19.304688 4.375 -20.234375 C 5.289062 -21.171875 6.40625 -21.875 7.71875 -22.34375 C 9.03125 -22.8125 10.476562 -23.046875 12.0625 -23.046875 C 13.164062 -23.046875 14.257812 -22.914062 15.34375 -22.65625 C 16.425781 -22.394531 17.414062 -21.972656 18.3125 -21.390625 C 19.21875 -20.804688 19.941406 -20.007812 20.484375 -19 C 21.035156 -17.988281 21.3125 -16.726562 21.3125 -15.21875 L 21.3125 0 L 16.15625 0 L 16.15625 -3.125 L 15.984375 -3.125 C 15.648438 -2.488281 15.191406 -1.894531 14.609375 -1.34375 C 14.023438 -0.800781 13.289062 -0.363281 12.40625 -0.03125 C 11.519531 0.289062 10.484375 0.453125 9.296875 0.453125 Z M 10.6875 -3.484375 C 11.769531 -3.484375 12.703125 -3.695312 13.484375 -4.125 C 14.273438 -4.550781 14.882812 -5.117188 15.3125 -5.828125 C 15.75 -6.546875 15.96875 -7.320312 15.96875 -8.15625 L 15.96875 -10.84375 C 15.800781 -10.707031 15.515625 -10.578125 15.109375 -10.453125 C 14.710938 -10.335938 14.265625 -10.234375 13.765625 -10.140625 C 13.273438 -10.054688 12.785156 -9.976562 12.296875 -9.90625 C 11.816406 -9.832031 11.398438 -9.773438 11.046875 -9.734375 C 10.242188 -9.617188 9.523438 -9.4375 8.890625 -9.1875 C 8.265625 -8.945312 7.769531 -8.609375 7.40625 -8.171875 C 7.039062 -7.734375 6.859375 -7.164062 6.859375 -6.46875 C 6.859375 -5.476562 7.21875 -4.734375 7.9375 -4.234375 C 8.65625 -3.734375 9.570312 -3.484375 10.6875 -3.484375 Z M 10.6875 -3.484375"/></g></g></g><g fill-opacity="1" fill="#000000"><g transform="translate(271.984993, 202.358246)"><g><path d="M 20.734375 -16.734375 L 15.84375 -16.203125 C 15.707031 -16.691406 15.46875 -17.15625 15.125 -17.59375 C 14.78125 -18.03125 14.320312 -18.378906 13.75 -18.640625 C 13.1875 -18.910156 12.488281 -19.046875 11.65625 -19.046875 C 10.539062 -19.046875 9.601562 -18.800781 8.84375 -18.3125 C 8.09375 -17.832031 7.722656 -17.207031 7.734375 -16.4375 C 7.722656 -15.78125 7.96875 -15.242188 8.46875 -14.828125 C 8.96875 -14.410156 9.789062 -14.066406 10.9375 -13.796875 L 14.828125 -12.96875 C 16.972656 -12.507812 18.570312 -11.773438 19.625 -10.765625 C 20.675781 -9.753906 21.207031 -8.4375 21.21875 -6.8125 C 21.207031 -5.382812 20.789062 -4.125 19.96875 -3.03125 C 19.144531 -1.9375 18 -1.082031 16.53125 -0.46875 C 15.070312 0.132812 13.394531 0.4375 11.5 0.4375 C 8.71875 0.4375 6.476562 -0.144531 4.78125 -1.3125 C 3.082031 -2.476562 2.070312 -4.109375 1.75 -6.203125 L 6.96875 -6.703125 C 7.207031 -5.679688 7.710938 -4.90625 8.484375 -4.375 C 9.253906 -3.851562 10.253906 -3.59375 11.484375 -3.59375 C 12.765625 -3.59375 13.789062 -3.851562 14.5625 -4.375 C 15.34375 -4.90625 15.734375 -5.554688 15.734375 -6.328125 C 15.734375 -6.972656 15.484375 -7.507812 14.984375 -7.9375 C 14.484375 -8.363281 13.707031 -8.691406 12.65625 -8.921875 L 8.78125 -9.734375 C 6.601562 -10.179688 4.988281 -10.945312 3.9375 -12.03125 C 2.894531 -13.113281 2.378906 -14.484375 2.390625 -16.140625 C 2.378906 -17.546875 2.757812 -18.765625 3.53125 -19.796875 C 4.300781 -20.828125 5.378906 -21.625 6.765625 -22.1875 C 8.160156 -22.757812 9.765625 -23.046875 11.578125 -23.046875 C 14.242188 -23.046875 16.34375 -22.476562 17.875 -21.34375 C 19.414062 -20.207031 20.367188 -18.671875 20.734375 -16.734375 Z M 20.734375 -16.734375"/></g></g></g><g fill-opacity="1" fill="#000000"><g transform="translate(294.880396, 202.358246)"><g><path d="M 12.828125 0.4375 C 10.546875 0.4375 8.578125 -0.0351562 6.921875 -0.984375 C 5.265625 -1.929688 3.992188 -3.28125 3.109375 -5.03125 C 2.222656 -6.789062 1.78125 -8.859375 1.78125 -11.234375 C 1.78125 -13.578125 2.222656 -15.632812 3.109375 -17.40625 C 4.003906 -19.175781 5.253906 -20.554688 6.859375 -21.546875 C 8.472656 -22.546875 10.367188 -23.046875 12.546875 -23.046875 C 13.941406 -23.046875 15.265625 -22.820312 16.515625 -22.375 C 17.765625 -21.925781 18.867188 -21.226562 19.828125 -20.28125 C 20.796875 -19.34375 21.554688 -18.148438 22.109375 -16.703125 C 22.660156 -15.265625 22.9375 -13.546875 22.9375 -11.546875 L 22.9375 -9.90625 L 4.296875 -9.90625 L 4.296875 -13.515625 L 17.796875 -13.515625 C 17.785156 -14.546875 17.5625 -15.460938 17.125 -16.265625 C 16.695312 -17.066406 16.09375 -17.695312 15.3125 -18.15625 C 14.539062 -18.625 13.644531 -18.859375 12.625 -18.859375 C 11.519531 -18.859375 10.550781 -18.59375 9.71875 -18.0625 C 8.894531 -17.539062 8.253906 -16.851562 7.796875 -16 C 7.335938 -15.144531 7.101562 -14.207031 7.09375 -13.1875 L 7.09375 -10.046875 C 7.09375 -8.722656 7.332031 -7.585938 7.8125 -6.640625 C 8.300781 -5.703125 8.976562 -4.984375 9.84375 -4.484375 C 10.71875 -3.984375 11.738281 -3.734375 12.90625 -3.734375 C 13.675781 -3.734375 14.378906 -3.84375 15.015625 -4.0625 C 15.648438 -4.28125 16.195312 -4.609375 16.65625 -5.046875 C 17.125 -5.484375 17.476562 -6.023438 17.71875 -6.671875 L 22.71875 -6.09375 C 22.40625 -4.769531 21.804688 -3.617188 20.921875 -2.640625 C 20.035156 -1.660156 18.90625 -0.898438 17.53125 -0.359375 C 16.15625 0.171875 14.585938 0.4375 12.828125 0.4375 Z M 12.828125 0.4375"/></g></g></g><g fill-opacity="1" fill="#000000"><g transform="translate(319.597353, 202.358246)"><g><path d="M 6.0625 0.328125 C 5.15625 0.328125 4.378906 0.015625 3.734375 -0.609375 C 3.097656 -1.242188 2.785156 -2.019531 2.796875 -2.9375 C 2.785156 -3.820312 3.097656 -4.578125 3.734375 -5.203125 C 4.378906 -5.835938 5.15625 -6.15625 6.0625 -6.15625 C 6.925781 -6.15625 7.679688 -5.835938 8.328125 -5.203125 C 8.972656 -4.578125 9.300781 -3.820312 9.3125 -2.9375 C 9.300781 -2.332031 9.144531 -1.78125 8.84375 -1.28125 C 8.539062 -0.789062 8.144531 -0.398438 7.65625 -0.109375 C 7.175781 0.179688 6.644531 0.328125 6.0625 0.328125 Z M 6.0625 0.328125"/></g></g></g></svg>